<svg fill="#FFFFFF" xmlns="http://www.w3.org/2000/svg"  viewBox="0 0 80 80" width="150px" height="150px"><path d="M 40 10.699219 C 32.741129 10.699219 26.143209 13.328883 21.011719 17.667969 L 11.099609 11.699219 C 11.099609 11.599219 11 11.599609 11 11.599609 C 10.2 11.299609 9.6992188 11.099609 9.1992188 11.099609 C 8.4992188 11.099609 7.9003906 11.400391 7.4003906 11.900391 C 6.4003906 12.900391 6.4003906 14.5 7.4003906 15.5 C 8.8833259 17.065321 12.174865 20.637166 15.412109 24.150391 C 12.442027 28.738619 10.699219 34.148396 10.699219 40 C 10.699219 56.2 23.9 69.300781 40 69.300781 C 56.1 69.300781 69.300781 56.2 69.300781 40 C 69.300781 23.8 56.2 10.699219 40 10.699219 z M 39.900391 12.699219 C 55.000391 12.699219 67.199219 25 67.199219 40 C 67.199219 55 55.1 67.300781 40 67.300781 C 24.9 67.300781 12.699219 55.1 12.699219 40 C 12.699219 34.752362 14.239183 29.853251 16.822266 25.673828 C 20.985084 30.195727 25.322654 34.915263 27.900391 37.699219 C 30.600391 40.599219 33.800781 42.699219 37.300781 43.699219 C 38.388852 43.950312 39.326907 44.123427 40.134766 44.175781 L 45.152344 47.175781 C 44.964344 48.86155 45.461485 50.675059 47 52.099609 L 47.099609 52.199219 C 50.038667 54.782027 50.589317 55.863772 49.6875 57.763672 C 49.548484 57.812494 49.416127 57.884654 49.300781 58 C 49.100781 58.2 49 58.399219 49 58.699219 C 49 58.799219 49.099609 58.999609 49.099609 59.099609 C 49.099609 59.132128 49.122915 59.164747 49.140625 59.197266 C 49.180088 59.430934 49.302913 59.652966 49.5 59.800781 C 49.7 59.900781 49.899609 60 50.099609 60 C 50.699609 60 51.199219 59.5 51.699219 59 C 55.499219 55.1 58.599219 48.700781 54.699219 43.800781 L 54.599609 43.699219 C 54.299609 43.499219 53.999219 43.2 53.699219 43 C 52.399817 41.989354 51.079726 41.702693 49.878906 41.882812 L 46.056641 37.603516 C 45.872601 35.981465 44.843596 31.989701 39.5 28.800781 L 22.791016 18.738281 C 27.482577 14.940091 33.46677 12.699219 39.900391 12.699219 z M 9.1992188 13.099609 C 9.2992187 13.099609 9.4996094 13.100391 10.099609 13.400391 L 38.5 30.400391 C 43.9 33.600391 44.099609 37.699609 44.099609 38.099609 C 44.099609 39.299609 43.7 40.400781 43 41.300781 C 41.9 42.600781 39.600391 42.199219 37.900391 41.699219 C 34.800391 40.799219 31.800391 38.900781 29.400391 36.300781 C 24.400391 30.900781 12.500781 17.899609 8.8007812 14.099609 C 8.6007813 13.899609 8.6007813 13.500781 8.8007812 13.300781 C 8.9007813 13.200781 8.9992188 13.099609 9.1992188 13.099609 z M 16.099609 36.425781 C 15.974609 36.425781 15.849219 36.45 15.699219 36.5 C 15.599219 36.5 15.500391 36.599219 15.400391 36.699219 C 15.200391 36.899219 15.099609 37.100391 15.099609 37.400391 C 15.099609 37.500391 15.199219 37.700781 15.199219 37.800781 C 15.199219 37.900781 15.300391 37.999609 15.400391 38.099609 C 15.600391 38.299609 15.799609 38.400391 16.099609 38.400391 C 16.199609 38.400391 16.4 38.300781 16.5 38.300781 C 16.6 38.300781 16.700781 38.199609 16.800781 38.099609 C 16.900781 37.999609 17 37.900781 17 37.800781 C 17.1 37.700781 17.099609 37.500391 17.099609 37.400391 C 17.099609 37.100391 17.000781 36.899219 16.800781 36.699219 C 16.700781 36.599219 16.6 36.6 16.5 36.5 C 16.35 36.45 16.224609 36.425781 16.099609 36.425781 z M 45.769531 40.255859 L 47.908203 42.648438 C 47.418778 42.966363 46.97418 43.355979 46.599609 43.800781 C 46.266384 44.189544 45.99769 44.644334 45.765625 45.125 L 43.257812 43.638672 C 43.785023 43.360834 44.186755 43.002353 44.5 42.599609 C 45.064429 41.922295 45.495929 41.116111 45.769531 40.255859 z M 15.800781 40.300781 C 15.200781 40.300781 14.800781 40.700781 14.800781 41.300781 C 14.800781 41.800781 15.200781 42.300781 15.800781 42.300781 C 16.400781 42.300781 16.800781 41.900781 16.800781 41.300781 C 16.800781 40.700781 16.300781 40.300781 15.800781 40.300781 z M 20.101562 41.705078 C 19.80625 41.662891 19.525781 41.775 19.300781 42 C 19.100781 42.2 19 42.399219 19 42.699219 C 19 42.999219 19.100781 43.200391 19.300781 43.400391 C 19.400781 43.500391 19.499609 43.599609 19.599609 43.599609 C 19.699609 43.699609 19.9 43.699219 20 43.699219 C 20.3 43.699219 20.499219 43.600391 20.699219 43.400391 C 20.899219 43.200391 21 42.999219 21 42.699219 C 21 42.499219 20.899219 42.2 20.699219 42 C 20.599219 41.9 20.500391 41.800781 20.400391 41.800781 C 20.300391 41.750781 20.2 41.719141 20.101562 41.705078 z M 50.699219 43.800781 C 51.299219 43.800781 51.9 44 52.5 44.5 C 52.8 44.7 52.999219 44.899609 53.199219 45.099609 C 54.299219 46.599609 54.8 48.2 54.5 50 C 54.2 52 53.1 54 52 55.5 C 51.7 53.8 50.3 52.299219 48.5 50.699219 L 48.400391 50.599609 C 46.700391 48.999609 47.000781 46.599609 48.300781 45.099609 C 48.900781 44.399609 49.699219 43.800781 50.699219 43.800781 z M 16.785156 43.939453 C 16.655469 43.931641 16.525391 43.95 16.400391 44 C 15.900391 44.2 15.600781 44.800781 15.800781 45.300781 C 15.900781 45.700781 16.300781 46.000391 16.800781 45.900391 L 17.099609 45.900391 C 17.599609 45.700391 17.899219 45.099609 17.699219 44.599609 C 17.549219 44.224609 17.174219 43.962891 16.785156 43.939453 z M 21.6875 45.066406 C 21.55625 45.082031 21.425781 45.124219 21.300781 45.199219 C 20.800781 45.499219 20.600391 46.099609 20.900391 46.599609 C 21.100391 46.999609 21.400781 47.099609 21.800781 47.099609 C 22.000781 47.099609 22.100781 47.1 22.300781 47 C 22.800781 46.7 22.999219 46.099609 22.699219 45.599609 C 22.474219 45.224609 22.08125 45.019531 21.6875 45.066406 z M 18.085938 47.623047 C 17.95625 47.624609 17.824219 47.649219 17.699219 47.699219 C 17.199219 47.899219 16.999219 48.5 17.199219 49 C 17.399219 49.4 17.799609 49.599609 18.099609 49.599609 C 18.199609 49.599609 18.4 49.6 18.5 49.5 C 19 49.3 19.2 48.699219 19 48.199219 C 18.85 47.824219 18.475 47.618359 18.085938 47.623047 z M 24.037109 48.400391 C 23.774609 48.375391 23.500781 48.449609 23.300781 48.599609 C 22.800781 48.899609 22.799609 49.6 23.099609 50 C 23.299609 50.2 23.600391 50.400391 23.900391 50.400391 C 24.100391 50.400391 24.3 50.299219 24.5 50.199219 C 25 49.899219 24.999219 49.200781 24.699219 48.800781 C 24.549219 48.550781 24.299609 48.425391 24.037109 48.400391 z M 44.375 50.238281 C 44.125 50.200781 43.849609 50.250391 43.599609 50.400391 C 43.199609 50.700391 43.100391 51.300781 43.400391 51.800781 C 43.600391 52.100781 43.899219 52.199219 44.199219 52.199219 C 44.399219 52.199219 44.600781 52.1 44.800781 52 C 45.200781 51.7 45.3 51.099609 45 50.599609 C 44.85 50.399609 44.625 50.275781 44.375 50.238281 z M 19.787109 50.964844 C 19.655859 50.982031 19.525391 51.024609 19.400391 51.099609 C 19.000391 51.399609 18.799609 52 19.099609 52.5 C 19.299609 52.9 19.6 53 20 53 C 20.1 53 20.3 53.000781 20.5 52.800781 C 20.9 52.500781 21.100781 51.900391 20.800781 51.400391 C 20.575781 51.100391 20.180859 50.913281 19.787109 50.964844 z M 26.5 51.150391 C 26.25 51.175391 26.000781 51.3 25.800781 51.5 C 25.400781 51.9 25.500391 52.500391 25.900391 52.900391 C 26.100391 53.100391 26.3 53.199219 26.5 53.199219 C 26.8 53.199219 27.100781 53.000781 27.300781 52.800781 C 27.700781 52.400781 27.599219 51.800391 27.199219 51.400391 C 26.999219 51.200391 26.75 51.125391 26.5 51.150391 z M 40.785156 52.365234 C 40.655469 52.380859 40.525391 52.425 40.400391 52.5 C 39.900391 52.7 39.7 53.300781 40 53.800781 C 40.2 54.100781 40.600781 54.300781 40.800781 54.300781 C 41.000781 54.300781 41.100781 54.299219 41.300781 54.199219 C 41.800781 53.999219 41.999219 53.400391 41.699219 52.900391 C 41.549219 52.525391 41.174219 52.318359 40.785156 52.365234 z M 29.814453 53.324219 C 29.425391 53.319531 29.050391 53.525391 28.900391 53.900391 C 28.700391 54.400391 28.900391 54.999219 29.400391 55.199219 C 29.500391 55.299219 29.600781 55.300781 29.800781 55.300781 C 30.200781 55.300781 30.499219 55.099219 30.699219 54.699219 C 30.899219 54.199219 30.699219 53.600391 30.199219 53.400391 C 30.074219 53.350391 29.944141 53.325781 29.814453 53.324219 z M 37.484375 53.796875 C 37.35625 53.775 37.224609 53.775781 37.099609 53.800781 C 36.599609 53.900781 36.300391 54.5 36.400391 55 C 36.500391 55.4 36.900781 55.699219 37.300781 55.699219 L 37.599609 55.699219 C 38.099609 55.599219 38.500781 55 38.300781 54.5 C 38.225781 54.125 37.86875 53.8625 37.484375 53.796875 z M 22.238281 54.150391 C 21.975781 54.125391 21.7 54.200391 21.5 54.400391 C 21.1 54.700391 21.000391 55.400781 21.400391 55.800781 C 21.600391 56.100781 21.899219 56.199609 22.199219 56.099609 C 22.399219 56.099609 22.600781 56.100391 22.800781 55.900391 C 23.200781 55.500391 23.300391 54.9 22.900391 54.5 C 22.750391 54.3 22.500781 54.175391 22.238281 54.150391 z M 33.3125 54.189453 C 32.881836 54.225 32.5 54.662109 32.5 55.099609 C 32.5 55.699609 32.900391 56.099609 33.400391 56.099609 C 33.900391 56.199609 34.400391 55.799219 34.400391 55.199219 C 34.500391 54.699219 34 54.199219 33.5 54.199219 C 33.4375 54.186719 33.374023 54.184375 33.3125 54.189453 z M 24.800781 56.949219 C 24.550781 56.974219 24.299609 57.100781 24.099609 57.300781 C 23.699609 57.700781 23.799219 58.299219 24.199219 58.699219 C 24.399219 58.899219 24.700781 59 24.800781 59 C 25.100781 59 25.399609 58.799609 25.599609 58.599609 C 25.999609 58.199609 25.9 57.599219 25.5 57.199219 C 25.3 56.999219 25.050781 56.924219 24.800781 56.949219 z M 28.212891 59.066406 C 27.819141 59.019531 27.424219 59.224609 27.199219 59.599609 C 26.999219 60.099609 27.099609 60.7 27.599609 61 C 27.699609 61.1 27.899609 61.199609 28.099609 61.099609 C 28.499609 61.099609 28.8 60.899609 29 60.599609 C 29.2 60.099609 29.099609 59.499219 28.599609 59.199219 C 28.474609 59.124219 28.344141 59.082031 28.212891 59.066406 z M 46.785156 59.824219 C 46.655469 59.825781 46.525391 59.850391 46.400391 59.900391 C 45.900391 60.100391 45.700391 60.699219 45.900391 61.199219 C 46.000391 61.599219 46.400781 61.800781 46.800781 61.800781 C 46.900781 61.800781 47.099219 61.699219 47.199219 61.699219 C 47.699219 61.499219 47.899219 60.900391 47.699219 60.400391 C 47.549219 60.025391 47.174219 59.819531 46.785156 59.824219 z M 31.572266 60.638672 C 31.169141 60.662109 30.849219 60.925781 30.699219 61.300781 C 30.499219 61.900781 30.800781 62.399609 31.300781 62.599609 C 31.400781 62.699609 31.499609 62.699219 31.599609 62.699219 C 32.099609 62.699219 32.499609 62.4 32.599609 62 C 32.799609 61.4 32.5 60.899219 32 60.699219 C 31.85 60.649219 31.706641 60.630859 31.572266 60.638672 z M 43.183594 60.998047 C 43.055469 60.974609 42.925781 60.975 42.800781 61 C 42.300781 61.1 41.999609 61.699219 42.099609 62.199219 C 42.299609 62.699219 42.699609 63 43.099609 63 L 43.300781 63 C 43.800781 62.9 44.1 62.300781 44 61.800781 C 43.925 61.350781 43.567969 61.068359 43.183594 60.998047 z M 35.5 61.5 C 35 61.5 34.500391 61.900391 34.400391 62.400391 C 34.400391 62.900391 34.800781 63.4 35.300781 63.5 L 35.400391 63.5 C 35.900391 63.5 36.300391 63.099609 36.400391 62.599609 C 36.400391 61.999609 36 61.6 35.5 61.5 z M 39.199219 61.5 C 38.699219 61.6 38.300781 62.099609 38.300781 62.599609 C 38.300781 63.199609 38.800781 63.6 39.300781 63.5 L 39.400391 63.5 C 39.900391 63.4 40.300781 62.900391 40.300781 62.400391 C 40.200781 61.900391 39.699219 61.5 39.199219 61.5 z"/></svg>